{"title":"Great Grand Masti (2016) ~2CD DVDSCR x264 AAC [DDR]","uid":15223310,"size":1579948858,"categoryP":"video","categoryS":"movies","magnet":"?xt=urn:btih:36b1f92a0f4c2d8aea2bd433f564ed7368a8ecff&amp;dn=Great+Grand+Masti+%282016%29+%7E2CD+DVDSCR+x264+AAC+%5BDDR%5D&amp;tr=udp%3A%2F%2Ftracker.leechers-paradise.org%3A6969&amp;tr=udp%3A%2F%2Fzer0day.ch%3A1337&amp;tr=udp%3A%2F%2Fopen.demonii.com%3A1337&amp;tr=udp%3A%2F%2Ftracker.coppersurfer.tk%3A6969&amp;tr=udp%3A%2F%2Fexodus.desync.com%3A6969","seeders":4,"leechers":2,"uploader":"SaM","files":3,"time":1467751911,"description":"\n- BollywooD MoviE -\r\n**- Great Grand Masti -**\r\n- 2016 -\r\n** 1/3 DVDF DvDSCR rip / x264 / AAC **\r\n \nhttp://extraimago.com/image/akSz \nhttp://extraimago.com/image/akS0 \nhttp://extraimago.com/image/akSJ \nhttp://extraimago.com/image/akSK \nhttp://extraimago.com/image/akSZ \nhttp://extraimago.com/image/akSe \nhttp://extraimago.com/image/akS4 \nhttp://extraimago.com/image/akSB \nhttp://extraimago.com/image/akSC \nhttp://extraimago.com/image/akSY \nhttp://extraimago.com/image/akSp \nhttp://extraimago.com/image/akSr \nhttp://extraimago.com/image/akSG\r\n\r\n[ Specs ]\r\nGeneral\r\nSource = MPEG DUMP @ (Thanks Lotty for Great Grand Mastery in snatching this leak)\r\nFormat : Matroska\r\nFile size : 1.46 GiB\r\nDuration : 2h 14mn\r\nOverall bit rate : 1 560 Kbps\r\nEncoded date : UTC 2016-07-05 08:14:58\r\n\r\nVideo\r\nFormat : AVC\r\nFormat/Info : Advanced Video Codec\r\nFormat profile :   \r\nFormat settings, CABAC : Yes\r\nFormat settings, ReFrames : 5 frames\r\nCodec ID : V_MPEG4/ISO/AVC\r\nDuration : 2h 14mn\r\nBit rate : 1 430 Kbps\r\nWidth : 720 pixels\r\nHeight : 304 pixels\r\nDisplay aspect ratio : 2.35:1\r\nFrame rate mode : Constant\r\nFrame rate : 23.976 (24000/1001) fps\r\nColor space : YUV\r\nChroma subsampling : 4:2:0\r\nBit depth : 8 bits\r\nScan type : Progressive\r\nBits/(Pixel*Frame) : 0.272\r\nStream size : 1.34 GiB (92%)\r\nWriting library : x264 core 148 r2692 64f4e24\r\nLanguage : English\r\nDefault : Yes\r\nForced : No\r\n\r\nAudio\r\nID : 2\r\nFormat : AAC\r\nFormat/Info : Advanced Audio Codec\r\nFormat profile : LC\r\nCodec ID : A_AAC\r\nDuration : 2h 14mn\r\nBit rate : 128 Kbps\r\nChannel(s) : 2 channels\r\nChannel positions : Front: L R\r\nSampling rate : 48.0 KHz\r\nFrame rate : 46.875 fps (1024 spf)\r\nCompression mode : Lossy\r\nStream size : 122 MiB (8%)\r\nDefault : Yes\r\nForced : No\r\n\r\nLanguage : Hindi\r\nDefault : Yes\r\n\r\nChapters: None on source\r\nSample: YES - included\r\n\r\nA DDR 8th Anniversary Exclusive Release...!","torrent":{"xt":"urn:btih:36b1f92a0f4c2d8aea2bd433f564ed7368a8ecff","amp;dn":"Great+Grand+Masti+%282016%29+%7E2CD+DVDSCR+x264+AAC+%5BDDR%5D","amp;tr":["udp%3A%2F%2Ftracker.leechers-paradise.org%3A6969","udp%3A%2F%2Fzer0day.ch%3A1337","udp%3A%2F%2Fopen.demonii.com%3A1337","udp%3A%2F%2Ftracker.coppersurfer.tk%3A6969","udp%3A%2F%2Fexodus.desync.com%3A6969"],"infoHash":"36b1f92a0f4c2d8aea2bd433f564ed7368a8ecff","infoHashBuffer":{"type":"Buffer","data":[54,177,249,42,15,76,45,138,234,43,212,51,245,100,237,115,104,168,236,255]},"announce":[],"urlList":[]}}